<?xml version="1.0" encoding="utf-8"?>
<!-- Generator: Adobe Illustrator 16.0.0, SVG Export Plug-In . SVG Version: 6.00 Build 0)  -->
<!DOCTYPE svg PUBLIC "-//W3C//DTD SVG 1.1//EN" "http://www.w3.org/Graphics/SVG/1.1/DTD/svg11.dtd">
<svg version="1.1" id="Layer_1" xmlns="http://www.w3.org/2000/svg" xmlns:xlink="http://www.w3.org/1999/xlink" x="0px" y="0px"
	 width="214.75px" height="51.83px" viewBox="0 0 214.75 51.83" enable-background="new 0 0 214.75 51.83" xml:space="preserve">
<g>
	<g>
		<path fill="#FFFFFF" d="M91.589,31.905c0.732,0.908,1.718,1.366,2.954,1.366c1.237,0,2.217-0.458,2.938-1.366
			c0.723-0.909,1.083-2.153,1.083-3.727V17.316h4.391v11c0,2.853-0.79,5.043-2.366,6.572c-1.573,1.526-3.591,2.291-6.046,2.291
			c-2.457,0-4.477-0.769-6.062-2.307c-1.586-1.536-2.377-3.724-2.377-6.557v-11h4.389v10.862
			C90.493,29.752,90.859,30.996,91.589,31.905z"/>
		<path fill="#FFFFFF" d="M125.125,24.604l-5.318,10.749h-2.617l-5.291-10.749v12.378h-4.386V17.316h5.935l5.064,10.806
			l5.092-10.806h5.908v19.665h-4.387V24.604z"/>
		<path fill="#FFFFFF" d="M148.359,36.981l-1.828-4.246h-8.242l-1.83,4.246h-4.67l8.496-19.665h4.25l8.496,19.665H148.359z
			 M142.426,23.171l-2.475,5.71h4.922L142.426,23.171z"/>
		<path fill="#FFFFFF" d="M169.066,17.316h4.389v19.665h-4.389l-9.367-12.322v12.322h-4.389V17.316h4.107l9.648,12.661V17.316z"/>
		<path fill="#FFFFFF" d="M194.057,34.268c-1.99,1.943-4.438,2.912-7.342,2.912c-2.908,0-5.357-0.969-7.344-2.912
			c-1.99-1.939-2.982-4.355-2.982-7.242c0-2.89,0.992-5.306,2.982-7.245c1.986-1.943,4.436-2.911,7.344-2.911
			c2.904,0,5.352,0.968,7.342,2.911c1.986,1.939,2.98,4.355,2.98,7.245C197.037,29.912,196.043,32.328,194.057,34.268z
			 M192.564,27.038c0-1.755-0.564-3.25-1.689-4.487c-1.125-1.238-2.506-1.855-4.148-1.855s-3.023,0.617-4.148,1.855
			c-1.125,1.237-1.689,2.732-1.689,4.487s0.564,3.243,1.689,4.472s2.506,1.843,4.148,1.843s3.023-0.614,4.148-1.843
			S192.564,28.793,192.564,27.038z"/>
		<path fill="#FFFFFF" d="M207.898,21.115v15.866h-4.387V21.115h-5.572v-3.799h15.531v3.799H207.898z"/>
	</g>
	<g>
		<path fill="#24B7CB" d="M88.896,43.351v4.447h-1.23v-4.447h-1.562v-1.065h4.354v1.065H88.896z"/>
		<path fill="#24B7CB" d="M95.749,44.115c0,0.884-0.348,1.454-1.049,1.711l1.397,1.972h-1.514l-1.222-1.759h-0.853v1.759h-1.23
			v-5.513h2.09c0.857,0,1.469,0.144,1.833,0.433C95.567,43.009,95.749,43.473,95.749,44.115z M94.266,44.771
			c0.153-0.139,0.23-0.354,0.23-0.652s-0.08-0.501-0.236-0.611c-0.158-0.109-0.434-0.166-0.828-0.166h-0.924v1.633h0.899
			C93.827,44.974,94.115,44.905,94.266,44.771z"/>
		<path fill="#24B7CB" d="M100.859,47.798l-0.514-1.191h-2.31l-0.513,1.191h-1.306l2.38-5.513h1.191l2.381,5.513H100.859z
			 M99.195,43.924l-0.696,1.602h1.382L99.195,43.924z"/>
		<path fill="#24B7CB" d="M106.938,43.006c0.527,0.482,0.79,1.15,0.79,2.009c0,0.855-0.257,1.535-0.771,2.034
			c-0.511,0.498-1.295,0.749-2.345,0.749h-1.887v-5.513h1.95C105.66,42.285,106.416,42.526,106.938,43.006z M106.036,46.284
			c0.301-0.285,0.455-0.696,0.455-1.238s-0.154-0.959-0.455-1.25c-0.301-0.292-0.768-0.439-1.392-0.439h-0.686v3.354h0.78
			C105.299,46.71,105.735,46.565,106.036,46.284z"/>
		<path fill="#24B7CB" d="M108.713,42.285h1.23v5.513h-1.23V42.285z"/>
		<path fill="#24B7CB" d="M115.076,42.285h1.232v5.513h-1.232l-2.625-3.454v3.454h-1.229v-5.513h1.15l2.703,3.547V42.285z"/>
		<path fill="#24B7CB" d="M121.166,44.989h1.238v1.956c-0.545,0.61-1.305,0.915-2.271,0.915c-0.809,0-1.49-0.267-2.037-0.806
			c-0.553-0.536-0.824-1.213-0.824-2.03c0-0.815,0.277-1.498,0.84-2.047c0.557-0.545,1.234-0.818,2.023-0.818
			c0.793,0,1.48,0.261,2.066,0.78l-0.641,0.922c-0.248-0.216-0.477-0.363-0.684-0.445c-0.205-0.081-0.432-0.122-0.674-0.122
			c-0.467,0-0.861,0.16-1.18,0.477c-0.324,0.319-0.484,0.739-0.484,1.26s0.154,0.937,0.461,1.25
			c0.309,0.311,0.674,0.468,1.102,0.468c0.426,0,0.779-0.082,1.064-0.245V44.989z"/>
		<path fill="#CA322D" d="M129.211,42.285v1.081h-2.557v1.19h2.432v1.078h-2.432v2.163h-1.229v-5.513H129.211z"/>
		<path fill="#CA322D" d="M134.811,47.036c-0.557,0.545-1.244,0.817-2.059,0.817s-1.502-0.272-2.059-0.817
			c-0.559-0.546-0.838-1.22-0.838-2.031c0-0.809,0.279-1.485,0.838-2.03c0.557-0.542,1.244-0.815,2.059-0.815
			s1.502,0.273,2.059,0.815c0.555,0.545,0.834,1.222,0.834,2.03C135.645,45.816,135.365,46.49,134.811,47.036z M134.391,45.008
			c0-0.488-0.156-0.908-0.473-1.256c-0.314-0.349-0.701-0.521-1.162-0.521s-0.85,0.172-1.164,0.521
			c-0.316,0.348-0.473,0.768-0.473,1.256c0,0.492,0.156,0.912,0.473,1.254c0.314,0.345,0.703,0.518,1.164,0.518
			s0.848-0.173,1.162-0.518C134.234,45.92,134.391,45.5,134.391,45.008z"/>
		<path fill="#CA322D" d="M141.078,44.115c0,0.884-0.348,1.454-1.049,1.711l1.396,1.972h-1.514l-1.221-1.759h-0.854v1.759h-1.23
			v-5.513h2.09c0.859,0,1.469,0.144,1.834,0.433C140.896,43.009,141.078,43.473,141.078,44.115z M139.596,44.771
			c0.154-0.139,0.23-0.354,0.23-0.652s-0.08-0.501-0.238-0.611c-0.158-0.109-0.434-0.166-0.828-0.166h-0.922v1.633h0.9
			C139.158,44.974,139.443,44.905,139.596,44.771z"/>
		<path fill="#CA322D" d="M144.266,47.798v-5.513h1.229V46.7h2.352v1.098H144.266z"/>
		<path fill="#CA322D" d="M148.666,42.285h1.23v5.513h-1.23V42.285z"/>
		<path fill="#CA322D" d="M154.959,42.285v1.081h-2.555v1.19h2.43v1.078h-2.43v2.163h-1.23v-5.513H154.959z"/>
		<path fill="#CA322D" d="M159.895,42.285v1.097h-2.742v1.135h2.467v1.05h-2.467v1.144h2.83v1.088h-4.062v-5.513H159.895z"/>
	</g>
	<g>
		<g>
			<path fill="#FFFFFF" d="M64.734,4.776c0.473,0,0.945,0.089,1.376,0.254c0.143-0.017,0.283-0.024,0.424-0.024
				c0.644,0,1.262,0.163,1.834,0.493c0.204,0.117,0.34,0.271,0.422,0.438c1.166,0.21,2.006,1.002,2.608,2.061
				c0.11,0.195,0.152,0.388,0.144,0.566c1.034,0.537,1.699,1.486,1.976,2.653c0.031,0.134,0.038,0.261,0.025,0.378
				c1.074,0.688,1.681,1.904,1.603,3.201c0.914,0.975,1.801,1.895,1.701,3.347c0.042,0.075,0.08,0.149,0.113,0.228
				c0.9,0.956,1.244,2.317,1.152,3.618c-0.015,0.182-0.064,0.339-0.139,0.471c0.995,0.983,1.203,2.139,1.088,3.479
				c-0.018,0.214-0.189,0.684-0.292,0.829c0.346,1.073,0.635,2.353,0.257,3.45c-0.028,0.081-0.062,0.155-0.103,0.223
				c0.475,1.286,0.625,3.09-0.287,4.088c0.286,1.336-0.008,2.745-0.793,3.857c-0.044,1.037-0.868,2.077-1.778,2.678
				c-0.018,1.024-0.482,1.917-1.388,2.498c-0.277,1.276-1.694,2.009-2.961,2.337c-0.065,0.017-0.128,0.025-0.19,0.031
				c-0.6,0.95-2.054,1.339-3.095,1.505c-0.02,0.003-0.038,0.004-0.057,0.007c-0.445,0.817-1.585,1.003-2.684,1.088
				c-0.118,0.115-0.266,0.199-0.438,0.23c-0.223,0.039-0.447,0.06-0.668,0.06c-0.183,0-0.366-0.014-0.544-0.046
				c-0.218,0.071-0.439,0.104-0.658,0.104c-0.626,0-1.238-0.271-1.702-0.71c-0.047-0.043-0.086-0.092-0.121-0.143
				c-0.146,0-0.25-0.096-0.345-0.209c-0.338-0.28-0.46-0.686-0.617-1.068c-0.093-0.262-0.145-0.527-0.141-0.803
				c0.01-0.156,0.019-0.312,0.029-0.466l0.002-0.628c-0.005-0.32-0.064-0.648,0.119-0.948c-0.02-0.048-0.02-0.084-0.009-0.118V8.804
				c0.022-0.05,0.028-0.114,0.077-0.139c0.027-0.251-0.023-0.513,0.123-0.742c0.008-0.034,0.02-0.07,0.027-0.107
				c0.166-0.329,0.35-0.634,0.396-1.031c0.076-0.652,1.041-1.622,1.587-1.665c0.157-0.013,0.313-0.019,0.47-0.021
				C63.727,4.878,64.23,4.776,64.734,4.776"/>
		</g>
		<g>
			<rect x="82.363" y="2.532" fill="#24B7CB" width="0.424" height="4.53"/>
			<rect x="79.764" y="6.002" fill="#24B7CB" width="0.424" height="7.916"/>
			<rect x="82.513" y="3.168" fill="#24B7CB" width="1.066" height="0.425"/>
			<rect x="81.508" y="6.35" fill="#24B7CB" width="1.068" height="0.424"/>
			<rect x="78.699" y="12.976" fill="#24B7CB" width="1.28" height="0.424"/>
			<rect x="79.976" y="7.621" fill="#24B7CB" width="1.28" height="0.425"/>
			<rect x="77.116" y="12.363" fill="#24B7CB" width="0.423" height="7.916"/>
			<rect x="77.327" y="14.832" fill="#24B7CB" width="1.279" height="0.424"/>
		</g>
		<g>
			<g>
				<rect x="58.424" y="34.829" fill="#24B7CB" width="0.44" height="7.944"/>
				<rect x="55.848" y="38.417" fill="#24B7CB" width="0.439" height="5.668"/>
				<rect x="58.594" y="34.779" fill="#24B7CB" width="1.02" height="0.424"/>
				<rect x="57.795" y="42.399" fill="#24B7CB" width="1.018" height="0.423"/>
				<rect x="55.049" y="42.562" fill="#24B7CB" width="1.019" height="0.424"/>
				<rect x="56.065" y="38.934" fill="#24B7CB" width="1.018" height="0.425"/>
				<g>
					<rect x="53.271" y="39.979" fill="#24B7CB" width="0.44" height="8.453"/>
					<rect x="53.491" y="44.08" fill="#24B7CB" width="1.019" height="0.424"/>
					<rect x="52.474" y="40.786" fill="#24B7CB" width="1.019" height="0.423"/>
				</g>
				<g>
					<rect x="50.697" y="40.73" fill="#24B7CB" width="0.439" height="7.286"/>
					<rect x="50.916" y="46.356" fill="#24B7CB" width="1.017" height="0.424"/>
					<rect x="50.068" y="42.316" fill="#24B7CB" width="1.019" height="0.424"/>
				</g>
				<g>
					<rect x="48.12" y="40.505" fill="#24B7CB" width="0.439" height="7.135"/>
					<rect x="48.313" y="46.868" fill="#24B7CB" width="1.019" height="0.424"/>
					<rect x="47.321" y="41.099" fill="#24B7CB" width="1.018" height="0.423"/>
				</g>
				<g>
					<rect x="40.391" y="38.64" fill="#24B7CB" width="0.44" height="5.525"/>
					<rect x="39.592" y="42.662" fill="#24B7CB" width="1.019" height="0.424"/>
					<rect x="40.612" y="39.383" fill="#24B7CB" width="1.019" height="0.424"/>
				</g>
				<g>
					<rect x="35.24" y="35.724" fill="#24B7CB" width="0.439" height="4.69"/>
					<rect x="35.459" y="36.212" fill="#24B7CB" width="1.018" height="0.424"/>
					<rect x="34.439" y="39.227" fill="#24B7CB" width="1.02" height="0.424"/>
				</g>
				<g>
					<rect x="32.663" y="32.741" fill="#24B7CB" width="0.44" height="5.865"/>
					<rect x="31.975" y="32.952" fill="#24B7CB" width="1.017" height="0.425"/>
					<rect x="32.992" y="36.681" fill="#24B7CB" width="0.799" height="0.424"/>
				</g>
				<g>
					<rect x="28.343" y="22.444" fill="#24B7CB" width="0.44" height="8.759"/>
					<rect x="27.545" y="30.176" fill="#24B7CB" width="1.018" height="0.424"/>
					<rect x="28.563" y="23.095" fill="#24B7CB" width="1.019" height="0.424"/>
				</g>
				<g>
					<rect x="30.287" y="29.167" fill="#24B7CB" width="0.439" height="5.017"/>
					<rect x="29.488" y="32.9" fill="#24B7CB" width="1.019" height="0.424"/>
					<rect x="30.601" y="29.572" fill="#24B7CB" width="1.017" height="0.424"/>
				</g>
				<g>
					<rect x="26.291" y="18.251" fill="#24B7CB" width="0.439" height="7.783"/>
					<rect x="25.493" y="19.732" fill="#24B7CB" width="1.018" height="0.424"/>
					<rect x="26.51" y="24.727" fill="#24B7CB" width="1.019" height="0.424"/>
				</g>
				<g>
					<rect x="37.815" y="37.389" fill="#24B7CB" width="0.439" height="5.448"/>
					<rect x="37.02" y="38.41" fill="#24B7CB" width="1.019" height="0.424"/>
					<rect x="38.035" y="42.2" fill="#24B7CB" width="1.018" height="0.424"/>
				</g>
				<g>
					<rect x="42.968" y="40.663" fill="#24B7CB" width="0.439" height="4.976"/>
					<rect x="42.168" y="40.844" fill="#24B7CB" width="1.02" height="0.422"/>
					<rect x="43.188" y="43.585" fill="#24B7CB" width="1.019" height="0.424"/>
				</g>
				<g>
					<rect x="45.543" y="39.36" fill="#24B7CB" width="0.44" height="7.58"/>
					<rect x="44.748" y="44.807" fill="#24B7CB" width="1.018" height="0.425"/>
					<rect x="45.766" y="43.174" fill="#24B7CB" width="1.019" height="0.424"/>
				</g>
			</g>
			<g>
				<g>
					<rect x="19.652" y="10.686" fill="#24B7CB" width="0.439" height="7.192"/>
					<rect x="18.794" y="11.516" fill="#24B7CB" width="1.078" height="0.425"/>
					<rect x="19.874" y="16.211" fill="#24B7CB" width="1.078" height="0.425"/>
				</g>
				<g>
					<rect x="14.2" y="13.71" fill="#24B7CB" width="0.439" height="5.267"/>
					<rect x="14.42" y="16.726" fill="#24B7CB" width="1.076" height="0.424"/>
					<rect x="13.342" y="13.63" fill="#24B7CB" width="1.078" height="0.424"/>
				</g>
				<g>
					<rect x="11.473" y="15.168" fill="#24B7CB" width="0.439" height="5.741"/>
					<rect x="10.73" y="20.696" fill="#24B7CB" width="1.078" height="0.425"/>
					<rect x="11.809" y="17.622" fill="#24B7CB" width="1.078" height="0.425"/>
				</g>
				<g>
					<rect x="8.746" y="17.866" fill="#24B7CB" width="0.44" height="7.062"/>
					<rect x="7.889" y="18.312" fill="#24B7CB" width="1.078" height="0.424"/>
					<rect x="8.967" y="24.02" fill="#24B7CB" width="1.077" height="0.424"/>
					<rect x="7.098" y="26.881" fill="#24B7CB" width="1.077" height="0.425"/>
				</g>
				<g>
					<rect x="6.912" y="22.236" fill="#24B7CB" width="0.44" height="5.74"/>
					<rect x="6.055" y="22.807" fill="#24B7CB" width="1.078" height="0.424"/>
				</g>
				<g>
					<rect x="4.008" y="25.693" fill="#24B7CB" width="0.439" height="6.275"/>
					<rect x="3.15" y="30.392" fill="#24B7CB" width="1.077" height="0.424"/>
					<rect x="4.228" y="26.364" fill="#24B7CB" width="1.079" height="0.424"/>
				</g>
				<g>
					<rect x="1.997" y="31.672" fill="#24B7CB" width="0.439" height="3.652"/>
					<rect x="1.139" y="32.354" fill="#24B7CB" width="1.078" height="0.424"/>
					<rect x="2.217" y="33.944" fill="#24B7CB" width="1.076" height="0.423"/>
				</g>
				<g>
					<rect x="16.925" y="11.758" fill="#24B7CB" width="0.44" height="6.273"/>
					<rect x="16.071" y="15.458" fill="#24B7CB" width="1.078" height="0.424"/>
					<rect x="17.146" y="12.394" fill="#24B7CB" width="1.077" height="0.424"/>
				</g>
				<g>
					<rect x="22.379" y="10.184" fill="#24B7CB" width="0.439" height="6.404"/>
					<rect x="21.521" y="15.719" fill="#24B7CB" width="1.078" height="0.424"/>
					<rect x="22.599" y="13.507" fill="#24B7CB" width="1.079" height="0.424"/>
				</g>
				<g>
					<rect x="25.105" y="9.135" fill="#24B7CB" width="0.439" height="8.503"/>
					<rect x="24.25" y="10.47" fill="#24B7CB" width="1.077" height="0.424"/>
					<rect x="25.328" y="12.848" fill="#24B7CB" width="1.078" height="0.424"/>
				</g>
			</g>
		</g>
		<g>
			<circle fill="#24B7CB" cx="66.226" cy="23.664" r="0.25"/>
			<circle fill="#24B7CB" cx="72.291" cy="37.81" r="0.25"/>
			<circle fill="#24B7CB" cx="72.453" cy="33.173" r="0.251"/>
			<circle fill="#24B7CB" cx="69.628" cy="36.837" r="0.251"/>
			<circle fill="#24B7CB" cx="65.919" cy="46.884" r="0.251"/>
			<path fill="#24B7CB" d="M70.951,41.382c0-0.186,0.149-0.335,0.334-0.335h4.812c0.9-0.604,1.71-1.633,1.755-2.661
				c0.785-1.112,1.079-2.521,0.793-3.857c0.396-0.434,0.591-1.02,0.647-1.647h-1.935v3.175c0,0.026-0.002,0.051-0.008,0.075v0.538
				c0.341,0.135,0.585,0.466,0.585,0.854c0,0.506-0.411,0.917-0.918,0.917c-0.506,0-0.918-0.411-0.918-0.917
				c0-0.389,0.243-0.72,0.584-0.854v-1.775c0-0.023,0.002-0.047,0.008-0.069v-2.277v-0.104v-5.61c0-0.185,0.148-0.335,0.333-0.335
				h1.886c0.077-0.191,0.149-0.425,0.16-0.56c0.003-0.033,0.004-0.066,0.007-0.101H75.7v4.568c0,0.184-0.15,0.333-0.334,0.333
				h-2.839c-0.134,0.342-0.465,0.584-0.854,0.584c-0.505,0-0.917-0.411-0.917-0.917c0-0.507,0.412-0.918,0.917-0.918
				c0.389,0,0.72,0.242,0.854,0.583h2.505v-1.733h-4.655v5.584c0,0.184-0.15,0.333-0.334,0.333c-0.184,0-0.333-0.149-0.333-0.333
				v-5.584h-1.229c-0.006,0-0.012-0.002-0.019-0.002h-2.583c-0.134,0.341-0.465,0.583-0.854,0.583c-0.506,0-0.919-0.411-0.919-0.918
				c0-0.506,0.413-0.917,0.919-0.917c0.388,0,0.719,0.242,0.854,0.583h2.981c0.007,0,0.015,0.002,0.021,0.002h1.162h4.99v-2.165
				v-1.939c-0.34-0.134-0.583-0.464-0.583-0.852c0-0.508,0.411-0.919,0.918-0.919c0.506,0,0.918,0.411,0.918,0.919
				c0,0.388-0.243,0.719-0.584,0.852v1.605h3.394c-0.024-1.019-0.316-1.919-1.115-2.71c0.075-0.134,0.125-0.289,0.138-0.471
				c0.093-1.301-0.251-2.662-1.15-3.618c-0.035-0.078-0.072-0.153-0.113-0.228c0.078-1.145-0.458-1.96-1.135-2.73h-1.739
				c-0.007,0-0.013-0.001-0.02-0.002c-0.134,0.343-0.465,0.586-0.854,0.586c-0.507,0-0.918-0.412-0.918-0.918
				c0-0.507,0.411-0.92,0.918-0.92c0.389,0,0.72,0.245,0.854,0.588c0.006,0,0.013-0.002,0.02-0.002h1.174
				c0.055-1.208-0.481-2.34-1.435-3.033h-2.137v5.046h2.74c0.134-0.341,0.465-0.584,0.854-0.584c0.507,0,0.918,0.411,0.918,0.917
				c0,0.508-0.411,0.919-0.918,0.919c-0.388,0-0.719-0.242-0.854-0.584h-2.74v4.04c0,0.185-0.15,0.334-0.334,0.334
				c-0.184,0-0.333-0.149-0.333-0.334v-4.375v-5.712c0-0.185,0.149-0.334,0.333-0.334h2.227c-0.107-0.391-0.259-0.756-0.456-1.086
				h-3.092v0.728v3.841c0,0.185-0.149,0.333-0.333,0.333h-2.839c-0.135,0.343-0.465,0.585-0.853,0.585
				c-0.507,0-0.918-0.411-0.918-0.918s0.411-0.919,0.918-0.919c0.388,0,0.718,0.244,0.853,0.585h2.505v-1.734h-4.657v5.583
				c0,0.186-0.15,0.335-0.334,0.335s-0.333-0.149-0.333-0.335v-5.583h-1.229c-0.186,0-0.334-0.15-0.334-0.333
				c0-0.186,0.148-0.335,0.334-0.335h1.562h4.991v-1.104V9.625V8.323c-0.341-0.134-0.585-0.465-0.585-0.853
				c0-0.507,0.413-0.919,0.919-0.919c0.506,0,0.918,0.412,0.918,0.919c0,0.388-0.244,0.719-0.584,0.853v0.969h2.588
				c-0.275-0.289-0.595-0.535-0.965-0.728c0.008-0.179-0.034-0.371-0.146-0.566c-0.6-1.059-1.441-1.851-2.606-2.061
				c-0.082-0.168-0.218-0.321-0.422-0.44C67.8,5.169,67.183,5.006,66.54,5.006c-0.14,0-0.281,0.008-0.424,0.024
				c-0.431-0.166-0.904-0.254-1.375-0.254c-0.504,0-1.007,0.102-1.455,0.321c-0.157,0.003-0.313,0.008-0.47,0.021
				c-0.548,0.043-1.512,1.012-1.587,1.665c-0.047,0.396-0.231,0.702-0.396,1.031c-0.009,0.036-0.02,0.072-0.028,0.107
				c-0.145,0.229-0.096,0.491-0.122,0.74c-0.049,0.026-0.055,0.091-0.077,0.141v10.078h1.521c0.184,0,0.334,0.149,0.334,0.333v1.777
				c0.34,0.134,0.583,0.465,0.583,0.854c0,0.506-0.411,0.917-0.918,0.917c-0.506,0-0.919-0.411-0.919-0.917
				c0-0.389,0.244-0.72,0.585-0.854V19.55h-1.188v3.779h3.112v-3.777c0-0.185,0.15-0.334,0.333-0.334
				c0.185,0,0.334,0.149,0.334,0.334v4.112c0,0.185-0.149,0.333-0.334,0.333h-3.445v1.179h8.403
				c0.017-0.003,0.035-0.006,0.053-0.006h1.833v-2.551c0-0.184,0.149-0.334,0.334-0.334c0.184,0,0.333,0.15,0.333,0.334v2.551h0.857
				c0.135-0.342,0.465-0.584,0.853-0.584c0.507,0,0.919,0.411,0.919,0.918c0,0.506-0.412,0.918-0.919,0.918
				c-0.388,0-0.718-0.242-0.853-0.584h-1.191h-1.944c-0.019,0.003-0.039,0.006-0.058,0.006h-8.623v6.929h3.169
				c0.129-0.353,0.464-0.608,0.86-0.608c0.506,0,0.918,0.413,0.918,0.92c0,0.506-0.412,0.918-0.918,0.918
				c-0.389,0-0.718-0.243-0.852-0.584h-3.178v10.367c-0.01,0.034-0.01,0.07,0.008,0.118c-0.183,0.3-0.123,0.628-0.119,0.947
				l-0.001,0.629c-0.01,0.154-0.019,0.31-0.029,0.464c-0.003,0.276,0.048,0.543,0.141,0.805c0.156,0.383,0.279,0.788,0.617,1.067
				c0.093,0.114,0.197,0.209,0.344,0.21c0.035,0.051,0.075,0.1,0.121,0.143c0.465,0.438,1.075,0.71,1.703,0.71
				c0.219,0,0.44-0.033,0.657-0.104c0.18,0.031,0.362,0.046,0.545,0.046c0.222,0,0.446-0.021,0.668-0.06
				c0.171-0.031,0.319-0.115,0.438-0.23c0.742-0.057,1.502-0.161,2.054-0.475v-0.837h-0.979c-0.134,0.342-0.466,0.585-0.854,0.585
				c-0.505,0-0.917-0.413-0.917-0.919c0-0.507,0.412-0.918,0.917-0.918c0.388,0,0.72,0.243,0.854,0.584h1.313
				c0.185,0,0.334,0.149,0.334,0.334v0.552c0.006,0,0.012,0,0.018-0.001c0.783-0.126,1.8-0.377,2.512-0.898V41.382z M63.399,9.292
				h1.833V6.741c0-0.186,0.15-0.335,0.333-0.335c0.185,0,0.334,0.149,0.334,0.335v2.551h0.859c0.132-0.342,0.464-0.585,0.852-0.585
				c0.507,0,0.918,0.412,0.918,0.918c0,0.507-0.411,0.918-0.918,0.918c-0.388,0-0.718-0.242-0.852-0.584h-1.193h-2.167
				c-0.184,0-0.333-0.149-0.333-0.334C63.066,9.441,63.215,9.292,63.399,9.292z M66.226,24.582c-0.507,0-0.918-0.412-0.918-0.918
				c0-0.388,0.242-0.72,0.583-0.854v-1.776c0-0.185,0.149-0.334,0.334-0.334c0.184,0,0.334,0.149,0.334,0.334v1.776
				c0.341,0.134,0.584,0.466,0.584,0.854C67.144,24.17,66.732,24.582,66.226,24.582z M69.18,21.182c0,0.185-0.15,0.335-0.334,0.335
				c-0.185,0-0.334-0.15-0.334-0.335v-3.554h-0.98c-0.134,0.342-0.465,0.585-0.854,0.585c-0.507,0-0.918-0.413-0.918-0.918
				c0-0.507,0.411-0.919,0.918-0.919c0.388,0,0.719,0.243,0.854,0.584h1.314c0.185,0,0.334,0.15,0.334,0.335V21.182z M73.647,21.39
				c-0.01,0.001-0.02,0.004-0.031,0.004c-0.184,0-0.334-0.15-0.334-0.335V20.12c-0.34-0.134-0.583-0.464-0.583-0.854
				c0-0.506,0.412-0.918,0.917-0.918c0.506,0,0.919,0.412,0.919,0.918c0,0.39-0.244,0.72-0.585,0.854v0.603h3.442
				c0.184,0,0.333,0.149,0.333,0.335v1.774c0.341,0.135,0.583,0.465,0.583,0.854c0,0.505-0.411,0.918-0.917,0.918
				c-0.507,0-0.918-0.413-0.918-0.918c0-0.39,0.242-0.72,0.583-0.854V21.39H73.647z M68.317,34.847h3.974
				c0.184,0,0.333,0.15,0.333,0.334v1.775c0.342,0.135,0.584,0.466,0.584,0.854c0,0.506-0.412,0.918-0.917,0.918
				c-0.507,0-0.919-0.412-0.919-0.918c0-0.389,0.243-0.72,0.584-0.854v-1.441h-3.639c-0.185,0-0.334-0.149-0.334-0.334
				C67.983,34.997,68.133,34.847,68.317,34.847z M63.842,31.404c-0.134,0.342-0.465,0.585-0.853,0.585
				c-0.506,0-0.917-0.412-0.917-0.919s0.411-0.918,0.917-0.918c0.388,0,0.719,0.243,0.853,0.585h2.644
				c0.184,0,0.333,0.149,0.333,0.333v3.856c0,0.185-0.149,0.335-0.333,0.335c-0.185,0-0.334-0.15-0.334-0.335v-3.522H63.842z
				 M65.269,39.295v-2.551c0-0.186,0.149-0.335,0.334-0.335s0.333,0.149,0.333,0.335v2.551h0.859
				c0.133-0.342,0.464-0.585,0.854-0.585c0.506,0,0.918,0.411,0.918,0.918s-0.412,0.918-0.918,0.918
				c-0.39,0-0.719-0.242-0.854-0.584h-1.192h-2.167c-0.185,0-0.334-0.149-0.334-0.334c0-0.184,0.149-0.333,0.334-0.333H65.269z
				 M63.076,35.189c0.507,0,0.918,0.411,0.918,0.918c0,0.389-0.244,0.719-0.583,0.854v0.938c0,0.184-0.15,0.334-0.334,0.334
				c-0.185,0-0.333-0.15-0.333-0.334v-0.938c-0.342-0.135-0.585-0.465-0.585-0.854C62.158,35.601,62.57,35.189,63.076,35.189z
				 M69.963,44.529c0,0.186-0.15,0.334-0.334,0.334h-2.839c-0.134,0.341-0.465,0.585-0.854,0.585c-0.507,0-0.917-0.412-0.917-0.919
				c0-0.506,0.411-0.918,0.917-0.918c0.388,0,0.719,0.244,0.854,0.585h2.506v-1.735h-4.658v5.584c0,0.185-0.148,0.335-0.333,0.335
				c-0.185,0-0.334-0.15-0.334-0.335v-5.584h-1.229c-0.184,0-0.334-0.149-0.334-0.333c0-0.186,0.15-0.334,0.334-0.334h1.563h4.991
				v-2.166v-1.938c-0.342-0.134-0.584-0.465-0.584-0.853c0-0.507,0.411-0.92,0.917-0.92c0.507,0,0.918,0.413,0.918,0.92
				c0,0.388-0.243,0.719-0.583,0.853v1.605h4.332v-2.161c-0.005-0.023-0.009-0.049-0.009-0.073v-3.554h-0.979
				c-0.134,0.341-0.464,0.585-0.853,0.585c-0.506,0-0.917-0.413-0.917-0.919s0.411-0.918,0.917-0.918
				c0.389,0,0.719,0.243,0.853,0.583h1.313c0.185,0,0.335,0.149,0.335,0.335v2.274c0.005,0.022,0.008,0.045,0.008,0.068v4.112
				c0,0.185-0.149,0.334-0.334,0.334h-4.665V44.529z"/>
			<circle fill="#24B7CB" cx="77.393" cy="23.686" r="0.25"/>
			<circle fill="#24B7CB" cx="62.989" cy="31.07" r="0.25"/>
			<circle fill="#24B7CB" cx="73.617" cy="19.267" r="0.25"/>
			<circle fill="#24B7CB" cx="64.634" cy="33.084" r="0.25"/>
			<circle fill="#24B7CB" cx="63.076" cy="36.107" r="0.251"/>
			<circle fill="#24B7CB" cx="66.678" cy="17.295" r="0.251"/>
			<circle fill="#24B7CB" cx="67.649" cy="39.628" r="0.25"/>
			<circle fill="#24B7CB" cx="65.936" cy="44.53" r="0.25"/>
			<circle fill="#24B7CB" cx="67.611" cy="9.625" r="0.251"/>
			<circle fill="#24B7CB" cx="73.123" cy="43.335" r="0.25"/>
			<circle fill="#24B7CB" cx="71.674" cy="30.406" r="0.25"/>
			<path fill="#24B7CB" d="M77.356,32.212h1.943c-0.032-0.616-0.172-1.238-0.368-1.771c0.039-0.067,0.074-0.142,0.101-0.223
				c0.333-0.965,0.152-2.068-0.133-3.051h-1.542V32.212z"/>
			<circle fill="#24B7CB" cx="77.016" cy="37.523" r="0.25"/>
			<circle fill="#24B7CB" cx="73.273" cy="25.504" r="0.251"/>
			<path fill="#24B7CB" d="M75.992,41.715h-4.374v4.2c0.035-0.005,0.07-0.008,0.106-0.018c1.268-0.327,2.684-1.06,2.961-2.336
				C75.393,43.107,75.826,42.463,75.992,41.715z M73.123,44.255c-0.505,0-0.918-0.413-0.918-0.919c0-0.507,0.413-0.919,0.918-0.919
				c0.507,0,0.919,0.412,0.919,0.919C74.042,43.842,73.63,44.255,73.123,44.255z"/>
			<circle fill="#24B7CB" cx="65.024" cy="28.001" r="0.251"/>
			<circle fill="#24B7CB" cx="65.9" cy="14.527" r="0.251"/>
			<circle fill="#24B7CB" cx="69.592" cy="7.47" r="0.25"/>
			<circle fill="#24B7CB" cx="62.126" cy="21.845" r="0.25"/>
			<circle fill="#24B7CB" cx="75.175" cy="17.091" r="0.251"/>
			<circle fill="#24B7CB" cx="75.366" cy="22.711" r="0.25"/>
			<circle fill="#24B7CB" cx="73.106" cy="15.079" r="0.251"/>
		</g>
		<g>
			
				<linearGradient id="SVGID_1_" gradientUnits="userSpaceOnUse" x1="-319.0068" y1="-305.8701" x2="-318.7949" y2="-305.8701" gradientTransform="matrix(0 208.1074 208.1074 0 63704.1094 66392.5156)">
				<stop  offset="0" style="stop-color:#E43530"/>
				<stop  offset="0.196" style="stop-color:#E43530"/>
				<stop  offset="0.3606" style="stop-color:#E03530"/>
				<stop  offset="0.5098" style="stop-color:#D6342F"/>
				<stop  offset="0.6532" style="stop-color:#C4322D"/>
				<stop  offset="0.7928" style="stop-color:#AC2F2A"/>
				<stop  offset="0.9286" style="stop-color:#8F2A25"/>
				<stop  offset="1" style="stop-color:#7E2722"/>
			</linearGradient>
			<path fill="url(#SVGID_1_)" d="M55.43,4.776c-0.472,0-0.946,0.088-1.377,0.254C53.91,5.014,53.77,5.006,53.63,5.006
				c-0.643,0-1.261,0.163-1.834,0.493c-0.206,0.117-0.34,0.271-0.422,0.438c-1.166,0.208-2.006,1.002-2.608,2.061
				c-0.111,0.195-0.153,0.388-0.144,0.566c-1.035,0.535-1.7,1.486-1.975,2.653c-0.032,0.134-0.039,0.26-0.028,0.378
				c-1.072,0.687-1.679,1.904-1.601,3.199c-0.914,0.977-1.801,1.896-1.703,3.349c-0.04,0.075-0.078,0.149-0.112,0.228
				c-0.9,0.956-1.244,2.317-1.152,3.618c0.013,0.182,0.064,0.337,0.139,0.471c-0.995,0.983-1.204,2.139-1.09,3.479
				c0.019,0.214,0.191,0.683,0.293,0.829c-0.348,1.073-0.635,2.353-0.257,3.45c0.028,0.081,0.062,0.155,0.103,0.223
				c-0.475,1.286-0.625,3.09,0.287,4.088c-0.286,1.336,0.008,2.745,0.793,3.857c0.045,1.037,0.867,2.077,1.778,2.678
				c0.018,1.024,0.482,1.917,1.388,2.498c0.277,1.276,1.694,2.009,2.961,2.336c0.065,0.018,0.128,0.026,0.19,0.032
				c0.601,0.95,2.054,1.338,3.094,1.505c0.02,0.003,0.039,0.004,0.058,0.007c0.445,0.817,1.584,1.003,2.682,1.088
				c0.12,0.115,0.267,0.199,0.439,0.23c0.223,0.039,0.446,0.06,0.669,0.06c0.183,0,0.365-0.015,0.544-0.046
				c0.218,0.071,0.439,0.104,0.658,0.104c0.626,0,1.236-0.271,1.702-0.71c0.046-0.043,0.084-0.092,0.121-0.143
				c0.146-0.001,0.25-0.096,0.345-0.21c0.338-0.279,0.459-0.685,0.616-1.068c0.094-0.261,0.145-0.527,0.143-0.804
				c-0.01-0.154-0.019-0.31-0.029-0.464l-0.003-0.628c0.004-0.32,0.065-0.648-0.119-0.948c0.02-0.048,0.02-0.084,0.008-0.118V8.804
				c-0.02-0.05-0.026-0.114-0.075-0.141c-0.028-0.249,0.023-0.511-0.124-0.74c-0.009-0.035-0.019-0.07-0.027-0.107
				c-0.166-0.329-0.35-0.635-0.397-1.031c-0.075-0.653-1.04-1.622-1.587-1.665c-0.158-0.014-0.313-0.019-0.471-0.021
				C56.437,4.878,55.933,4.776,55.43,4.776"/>
		</g>
		<g id="Calloso_3_">
			<g>
				<path fill="#FFFFFF" d="M58.593,30.775c0.18,0,0.326,0.146,0.326,0.326s-0.146,0.326-0.326,0.326"/>
				<path fill="#FFFFFF" d="M54.868,33.988c-0.494,0-0.897-0.402-0.897-0.896c0-0.495,0.403-0.896,0.897-0.896
					c0.495,0,0.897,0.401,0.897,0.896C55.765,33.586,55.362,33.988,54.868,33.988z M54.868,32.848c-0.135,0-0.245,0.109-0.245,0.244
					c0,0.134,0.11,0.245,0.245,0.245s0.246-0.111,0.246-0.245C55.114,32.957,55.002,32.848,54.868,32.848z"/>
				<path fill="#FFFFFF" d="M60.046,33.42h-4.661c-0.184,0-0.334-0.146-0.334-0.324c0-0.178,0.15-0.322,0.334-0.322h4.995
					c0.184,0,0.333,0.145,0.333,0.322"/>
			</g>
			<g>
				<path fill="#FFFFFF" d="M57.188,32c-0.498,0-0.902-0.403-0.902-0.898c0-0.493,0.404-0.896,0.902-0.896
					c0.497,0,0.901,0.402,0.901,0.896C58.089,31.597,57.685,32,57.188,32z M57.188,30.857c-0.136,0-0.246,0.109-0.246,0.244
					c0,0.136,0.11,0.246,0.246,0.246c0.135,0,0.246-0.11,0.246-0.246C57.435,30.967,57.323,30.857,57.188,30.857z"/>
				<rect x="57.612" y="30.778" fill="#FFFFFF" width="4.812" height="0.648"/>
			</g>
		</g>
	</g>
</g>
</svg>
